<svg xmlns="http://www.w3.org/2000/svg" viewBox="0 0 416.98 389.02"><title>nmTeam</title><g id="nmTeam_2" data-name="nmTeam 2"><path d="M192.35,73.06a233.19,233.19,0,0,0-29.52,15.1c-.92.56-20.14,13.83-20.14,13.83l-16.94,14.23s-57.88,73-67.09,97.5-14.81,80-9.36,104.68,19.57,46.3,20.42,56.69,1.19,22.46,4.09,26.55,12,9.21,23.32,5.1S236,174.23,238.91,164.19s34.39-17.7,75.24-15.32-8.34,7.32,40.85,2.39,31.32,7.14,41.87-3.41,18.73.17,8.85-10.72S393.13,124,393.13,124l11.5-15.65,15.9-32.86-16.68-7.83L388,87.6l-6,5.1-4.9,4.43-5,4.76-5.28,5.28L332.53,81.59,284.19,65.81H239.93l-25.36,3.91" transform="translate(-42.34 -58.72)" style="fill:#fff"/><polyline points="378.19 178.31 405.43 214.92 405.43 228.2 373.26 191.28 378.19 178.31" style="fill:#fff"/></g><g id="nmTeam_1" data-name="nmTeam 1"><path d="M358.33,375c81.32-81.71,83.28-185.79,20.2-248.86s-166.75-61.61-248.86,20.2C53.75,222.06,35.4,328.69,83.57,394.12a37.3,37.3,0,0,0-4.71,11.08,17.08,17.08,0,0,0,3.63,17.27,18.13,18.13,0,0,0,17.36,3.43,34.51,34.51,0,0,0,10.6-4.51C175.87,469.26,282.7,450.81,358.33,375Z" transform="translate(-42.34 -58.72)" style="fill:#ead050"/><path d="M355.57,146.88c5.1,5.1,12.33,6.12,16.16,2.29s2.81-11.06-2.29-16.16h0c0-6.12-12.82-14.64-19.2-16.41s-11.54,1.76-11.54,7.89,5.18,12.52,11.55,14.29c1.08.3,2.16.45,5.32,8.1Z" transform="translate(-42.34 -58.72)" style="fill:#604d42"/><path d="M392.17,119.55s30.9-2.15,53.66,32.38S454.65,258.75,459,288.18a175.54,175.54,0,0,1-40.91-54.94A343.15,343.15,0,0,1,392.17,119.55Z" transform="translate(-42.34 -58.72)" style="fill:#73d36e"/><path d="M226.18,354.44a8.73,8.73,0,1,0,17.46-.46h0a8.73,8.73,0,0,0-17.46.46Z" transform="translate(-42.34 -58.72)" style="fill:#e5a923"/><path d="M293.91,349.78a8.73,8.73,0,1,0,17.46-.46h0a8.73,8.73,0,0,0-17.46.46Z" transform="translate(-42.34 -58.72)" style="fill:#e5a923"/><path d="M251.92,374.64a8.73,8.73,0,1,0,17.46-.46h0a8.73,8.73,0,0,0-17.46.46Z" transform="translate(-42.34 -58.72)" style="fill:#e5a923"/><path d="M201.65,383a8.73,8.73,0,1,0,17.45-.46h0a8.73,8.73,0,1,0-17.45.46Z" transform="translate(-42.34 -58.72)" style="fill:#e5a923"/><path d="M263.45,340.11a8.73,8.73,0,1,0,8.5-9,8.73,8.73,0,0,0-8.5,9Z" transform="translate(-42.34 -58.72)" style="fill:#e5a923"/><path d="M299.38,315.81a8.73,8.73,0,0,0,17.45-.47h0a8.73,8.73,0,1,0-17.45.47Z" transform="translate(-42.34 -58.72)" style="fill:#e5a923"/><path d="M157.82,151.53a134,134,0,0,0-29.42,30.61c-13.34,19-19.62,33.15-17.07,33.25s12.75-15.3,25.8-29.43a297.37,297.37,0,0,1,28.44-27.46c13.44-10,1.28-12.66-7.75-7ZM189.7,134a8.63,8.63,0,0,0-10.49,0,7.26,7.26,0,0,0-2.55,9.22c2.16,3.24,6.08,2.46,9.81,0S192.06,137,189.7,134Z" transform="translate(-42.34 -58.72)" style="fill:#fff"/><path d="M196.08,82.18c61.8-25.6,125.07-14.52,169.21,29.43a4.93,4.93,0,0,0,3.43,1.47,4.72,4.72,0,0,0,3.54-1.47A293.47,293.47,0,0,0,392.76,88,159.4,159.4,0,0,0,404,71.49l14.22,5.39c-2.35,3-5.69,7.26-9.81,12.27s-10.89,12.55-11,12.55a4.9,4.9,0,0,0,6.7,7.16,5.42,5.42,0,0,0,.46-.49s6.18-6.67,11.47-13.14c8.54-10.3,13.74-17.56,13.74-17.86a4.9,4.9,0,0,0-1.12-6.84,5,5,0,0,0-1.14-.61L403.25,60.7A4.91,4.91,0,0,0,397,63.35,109.56,109.56,0,0,1,384.71,82c-6.27,8.24-12.55,15.31-16.28,19.62-46.5-44.43-112.12-55-176.08-28.54a4.9,4.9,0,0,0,2.86,9.38,4.7,4.7,0,0,0,.87-.36Zm-50.71,29a5,5,0,0,0,2.94-1A226.14,226.14,0,0,1,167.93,96.5a4.91,4.91,0,0,0-5.1-8.34A240.51,240.51,0,0,0,142,102.49a4.9,4.9,0,0,0,2.94,8.82Zm258.86,159.3a4.9,4.9,0,0,0-6.27,2.94,221.72,221.72,0,0,1-52.78,80.34c-73.37,73.37-177.15,92.89-241.5,45.52a4.88,4.88,0,0,0-5.69,0,29.44,29.44,0,0,1-8.93,3.82,13.32,13.32,0,0,1-12.36-2.26,12.26,12.26,0,0,1-2.35-12.26,33.08,33.08,0,0,1,4-9.81,4.91,4.91,0,0,0,0-5.69C30.5,309.17,50,205.29,123.39,132q4.42-4.41,8.93-8.53a4.9,4.9,0,0,0-6.14-7.65,4,4,0,0,0-.43.39q-4.71,4.32-9.32,8.83C40.7,200.78,20.2,308.29,68.07,376.66a43.32,43.32,0,0,0-3.63,9.81,21.89,21.89,0,0,0,5,21.58,22.57,22.57,0,0,0,21.78,4.61,37.56,37.56,0,0,0,9.32-3.54A149.23,149.23,0,0,0,187,434.82c55.71,0,116.92-25.79,165.19-74.06a231.2,231.2,0,0,0,55.12-83.86,4.9,4.9,0,0,0-2.86-6.32l-.18-.06Zm49.15-18.15c1.18-33.64,2.65-75.53-13.64-100.25-24-36.49-56.69-34.63-58.07-34.53a4.91,4.91,0,0,0-4.51,5.1,344.34,344.34,0,0,0,26.39,115.56,178.51,178.51,0,0,0,42.08,56.69,4.9,4.9,0,0,0,8-4.51,248,248,0,0,1-.29-38.06Zm-9.81,0c0,9.81-.69,18.84-.49,26.59a175.5,175.5,0,0,1-30.7-44.64A331.93,331.93,0,0,1,387.26,127.6,62,62,0,0,1,431.6,157c14.52,22.66,13,62.78,12,94.95Z" transform="translate(-42.34 -58.72)" style="fill:#604d42"/><path d="M156.19,278.53l2-35.8.53-16.82q.12-4.5.12-6.56,1.51.06,2.28.06c.47,0,1.21,0,2.23-.06l-.79,13.36q1.29-2.75,2.14-4.19a19.8,19.8,0,0,1,2.32-3.07,20.31,20.31,0,0,1,3.49-3.08,18.52,18.52,0,0,1,4.86-2.4,32.29,32.29,0,0,1,5.84-1.41,41,41,0,0,1,15.47.67,17.52,17.52,0,0,1,7.68,3.84,14.14,14.14,0,0,1,4.19,6.27,24.37,24.37,0,0,1,1.15,7.59c0,1.21-.06,3-.18,5.39L208.29,269l-.24,9.55q-1.17-.06-2.28-.06c-.75,0-1.49,0-2.23.06q.57-7.32.92-14l.81-15q.47-8.33.47-12a19.89,19.89,0,0,0-1.12-6.92,10.89,10.89,0,0,0-3.83-5.07,17.94,17.94,0,0,0-6.47-2.93,33.05,33.05,0,0,0-7.74-.9,29.12,29.12,0,0,0-9.83,1.52,20.44,20.44,0,0,0-7.09,4.31,21.76,21.76,0,0,0-5,7.17,31.72,31.72,0,0,0-2.23,8.85q-.69,4.92-1.13,16.08t-.44,18.9q-1.51-.06-2.34-.06C158,278.47,157.21,278.49,156.19,278.53Z" transform="translate(-42.34 -58.72)" style="fill:#e5a923;stroke:#e5a923;stroke-miterlimit:10;stroke-width:7px"/><path d="M230.57,278.53l.64-8q.18-2.4.3-4.8L233,226.68q.06-4.29.06-7.33,1.17.06,2.28.06c.75,0,1.49,0,2.23-.06l-.6,12.31a38.71,38.71,0,0,1,3.46-5.63,19.31,19.31,0,0,1,4.24-3.92,21.42,21.42,0,0,1,6.1-2.93,23.79,23.79,0,0,1,7.12-1.06,22.12,22.12,0,0,1,6,.82,20,20,0,0,1,4.89,2.05,14.44,14.44,0,0,1,3.37,2.76,12.41,12.41,0,0,1,2.08,3.16,27.46,27.46,0,0,1,1.44,4.51q1.17-2.28,2.23-3.95A19.13,19.13,0,0,1,280.8,224a18.49,18.49,0,0,1,4.25-3.08,24.07,24.07,0,0,1,5.48-2.08,25.94,25.94,0,0,1,15.39.91,13.48,13.48,0,0,1,6.71,5.36A16,16,0,0,1,315,234q0,2.87-.4,8.7t-.91,16.58q-.49,10.75-.55,19.25c-1,0-1.8-.06-2.35-.06s-1.33,0-2.35.06q.53-7.2,1.06-17.23l.88-16.11q.35-6,.35-10a32.5,32.5,0,0,0-.17-3.54,10.55,10.55,0,0,0-.8-2.93A9.77,9.77,0,0,0,308,226a11.53,11.53,0,0,0-2.85-2.25,14.58,14.58,0,0,0-4-1.53,21.53,21.53,0,0,0-5-.55,20.45,20.45,0,0,0-7,1.17,19.14,19.14,0,0,0-5.8,3.31,17.92,17.92,0,0,0-4.25,5.1,28.28,28.28,0,0,0-2.73,8.11q-.91,4.4-1.27,15.7l-.66,23.44c-1,0-1.8-.06-2.34-.06s-1.33,0-2.35.06q.6-8,.89-15.7l.71-14.77q.36-7,.36-11.66a20.85,20.85,0,0,0-.82-6.67,10.88,10.88,0,0,0-2.67-4.15,12.69,12.69,0,0,0-4.63-2.85,17.49,17.49,0,0,0-6.13-1,20.23,20.23,0,0,0-7,1.2,18.91,18.91,0,0,0-5.9,3.41,19.78,19.78,0,0,0-4.37,5.4,30.65,30.65,0,0,0-2.9,8.49,122.84,122.84,0,0,0-1.46,16.3q-.57,12.94-.58,22c-1,0-1.8-.06-2.34-.06S231.59,278.49,230.57,278.53Z" transform="translate(-42.34 -58.72)" style="fill:#e5a923;stroke:#e5a923;stroke-miterlimit:10;stroke-width:7px"/></g></svg>