<?xml version="1.0" standalone="no"?><!DOCTYPE svg PUBLIC "-//W3C//DTD SVG 1.1//EN" "http://www.w3.org/Graphics/SVG/1.1/DTD/svg11.dtd"><svg t="1624007555020" class="icon" viewBox="0 0 1024 1024" version="1.1" xmlns="http://www.w3.org/2000/svg" p-id="16152" xmlns:xlink="http://www.w3.org/1999/xlink" width="700" height="700"><defs><style type="text/css"></style></defs><path d="M385.98 821.55l15.87-244.8 436.34-400.08q13.6-13.6 2.26-17.56-11.33-3.97-31.73 6.24l-539.48 346.8-232.33-74.8Q-1.63 424.89 0.07 403.36q1.7-21.54 48.17-41.94L956.06 5.54q32.87-13.6 53.84 6.24 20.96 19.84 10.76 69.7L866.52 821.56q-7.93 39.67-30.03 49.31-22.1 9.63-54.97-8.5l-235.74-176.8-113.33 112.2q-9.07 10.2-19.27 17-10.2 6.8-27.2 6.8z" fill="#1296db" p-id="16153"></path></svg>