<?xml version="1.0" standalone="no"?><!DOCTYPE svg PUBLIC "-//W3C//DTD SVG 1.1//EN" "http://www.w3.org/Graphics/SVG/1.1/DTD/svg11.dtd"><svg t="1624007586247" class="icon" viewBox="0 0 1024 1024" version="1.1" xmlns="http://www.w3.org/2000/svg" p-id="17685" xmlns:xlink="http://www.w3.org/1999/xlink" width="700" height="700"><defs><style type="text/css"></style></defs><path d="M1024 103q-30 13-60 21.5T905 137q34-21 56-50.5T996 23q-30 13-63.5 27T865 69q-30-30-68.5-49.5T711 0q-43 0-81 17t-67 46q-29 29-45.5 67T501 211q0 13 0.5 25t4.5 20q-66-2-127.5-17.5t-117-43q-55.5-27.5-104-67T68 40Q55 66 47.5 92T40 148q0 56 26 101.5t65 75.5q-21-5-45.5-10.5T40 296q0 77 49 134.5T210 501q-12 4-25.5 5t-30.5 1q-9 0-20.5-1t-19.5-5q21 64 73.5 104T313 649q-56 43-122.5 67T51 740q-13 0-25.5-0.5T0 734q34 22 72 39.5t79.5 30.5q41.5 13 84.5 20t88 7q145 0 256.5-54T768 637q76-86 115-192.5T922 234v-14.5V205q29-17 55-44.5t47-57.5z" fill="#1296db" p-id="17686"></path></svg>