<?xml version="1.0" standalone="no"?><!DOCTYPE svg PUBLIC "-//W3C//DTD SVG 1.1//EN" "http://www.w3.org/Graphics/SVG/1.1/DTD/svg11.dtd"><svg t="1624007528000" class="icon" viewBox="0 0 1024 1024" version="1.1" xmlns="http://www.w3.org/2000/svg" p-id="14366" width="700" height="700" xmlns:xlink="http://www.w3.org/1999/xlink"><defs><style type="text/css"></style></defs><path d="M796.16 926.72h-568.32C158.72 926.72 102.4 870.912 102.4 801.28v-568.32C102.4 163.84 158.72 107.52 227.84 107.52h568.32C865.28 107.52 921.6 163.84 921.6 232.96v568.32c0 69.632-56.32 125.44-125.44 125.44z" fill="#FFFFFF" p-id="14367"></path><path d="M683.008 507.904c14.336-27.648 15.872-53.248 4.096-73.216-11.776-20.48-36.864-32.256-69.632-33.28-24.064-0.512-51.712 5.12-78.848 15.872 9.216-32.256 6.656-57.856-9.216-73.728-18.432-18.432-52.224-19.456-94.208-2.048-38.912 16.384-81.92 46.592-120.832 85.504C256.512 485.888 218.112 552.96 216.064 599.04c-0.512 4.608-1.024 9.216-1.024 13.824 0 41.472 29.184 79.872 81.92 108.544 50.688 27.136 118.272 42.496 189.952 42.496s138.752-14.848 189.952-42.496c52.736-28.672 81.92-67.072 81.92-108.544 0-39.936-27.136-76.8-75.776-104.96z" fill="#EA533B" p-id="14368"></path><path d="M517.12 753.664c-71.68 0-138.752-14.848-189.952-42.496-52.736-28.672-81.92-67.072-81.92-108.544 0-4.608 0.512-9.216 1.024-13.824 2.048-46.592 40.448-113.664 98.304-171.52 38.4-38.4 80.896-68.608 119.808-84.992-9.216 2.048-18.944 5.12-29.184 9.728-38.912 16.384-81.92 46.592-120.832 85.504C256.512 485.888 218.112 552.96 216.064 599.04c-0.512 4.608-1.024 9.216-1.024 13.824 0 41.472 29.184 79.872 81.92 108.544 50.688 27.136 118.272 42.496 189.952 42.496 56.32 0 110.08-9.216 155.136-26.624-37.888 10.752-80.896 16.384-124.928 16.384z" fill="#D93C1C" p-id="14369"></path><path d="M637.44 582.144c-3.072-34.304-25.6-64.512-63.488-84.992-36.864-19.968-83.968-28.16-132.608-24.064-48.64 4.096-93.696 20.992-126.464 46.592-33.792 26.624-51.2 60.416-48.128 94.72 3.072 34.304 25.6 64.512 63.488 84.992 30.72 16.384 68.608 25.088 108.544 25.088 8.192 0 15.872-0.512 24.064-1.024 48.64-4.096 93.696-20.992 126.464-46.592 33.792-26.624 51.2-60.416 48.128-94.72z" fill="#FFFFFF" p-id="14370"></path><path d="M482.304 713.728c-8.192 0.512-16.384 1.024-24.064 1.024-39.936 0-77.824-8.704-108.544-25.088-37.888-20.48-60.928-50.688-63.488-84.992-3.072-34.304 14.336-68.096 48.128-94.72 6.656-5.12 13.824-10.24 21.504-14.848-14.848 6.656-28.672 15.36-40.96 24.576-33.792 26.624-51.2 60.416-48.128 94.72 3.072 34.304 25.6 64.512 63.488 84.992 30.72 16.384 68.608 25.088 108.544 25.088 8.192 0 15.872-0.512 24.064-1.024 38.912-3.584 75.264-14.336 104.96-31.744-25.6 11.776-54.784 19.456-85.504 22.016z" fill="#E5E5E5" p-id="14371"></path><path d="M547.328 582.656c-11.264-46.08-64.512-72.704-118.784-59.392-54.784 13.312-90.112 60.928-78.848 107.008 5.632 22.528 20.992 40.96 44.032 52.224 14.336 7.168 30.208 10.24 46.592 10.24 9.216 0 18.944-1.024 28.16-3.584 54.784-12.288 90.112-60.416 78.848-106.496z" fill="#333333" p-id="14372"></path><path d="M421.376 628.224m-35.328 0a35.328 35.328 0 1 0 70.656 0 35.328 35.328 0 1 0-70.656 0Z" fill="#FFFFFF" p-id="14373"></path><path d="M647.68 356.352c-8.192 0-14.848 6.656-14.848 14.848s6.656 14.848 14.848 14.848c30.72 0 55.296 24.576 55.296 55.296 0 8.192 6.656 14.848 14.848 14.848s14.848-6.656 14.848-14.848c0.512-46.592-37.888-84.992-84.992-84.992z" fill="#FFA929" p-id="14374"></path><path d="M637.952 270.848c-3.584 0-7.68 0-11.264 0.512-11.264 0.512-19.456 10.24-18.944 21.504 0.512 11.264 10.24 19.456 21.504 18.944 3.072 0 5.632-0.512 8.704-0.512 72.192 0 131.072 58.88 131.072 131.072 0 8.704-1.024 17.408-2.56 26.112-1.536 8.192 2.048 16.384 8.704 20.992 7.168 4.608 16.384 4.096 23.04-1.024 4.096-3.072 6.656-7.168 7.68-12.288 2.048-11.264 3.584-22.528 3.584-34.304-0.512-94.208-77.312-171.008-171.52-171.008z" fill="#FFA929" p-id="14375"></path><path d="M486.912 592.896m-19.968 0a19.968 19.968 0 1 0 39.936 0 19.968 19.968 0 1 0-39.936 0Z" fill="#FFFFFF" p-id="14376"></path></svg>